<mxfile host="app.diagrams.net" agent="Mozilla/5.0 (X11; Linux x86_64; rv:143.0) Gecko/20100101 Firefox/143.0" version="28.2.5">
  <diagram name="Page-1" id="36yPX5fVbjs0mzi0-UBd">
    <mxGraphModel dx="965" dy="570" grid="1" gridSize="10" guides="1" tooltips="1" connect="1" arrows="1" fold="1" page="1" pageScale="1" pageWidth="850" pageHeight="1100" math="0" shadow="0">
      <root>
        <mxCell id="0" />
        <mxCell id="1" parent="0" />
        <mxCell id="_KNiHHcJDV815VIQZiX_-21" value="OPV Design Model" style="rounded=1;whiteSpace=wrap;html=1;fillColor=none;dashed=1;labelPosition=center;verticalLabelPosition=top;align=center;verticalAlign=bottom;" vertex="1" parent="1">
          <mxGeometry x="100" y="20" width="530" height="440" as="geometry" />
        </mxCell>
        <mxCell id="_KNiHHcJDV815VIQZiX_-14" style="edgeStyle=orthogonalEdgeStyle;rounded=0;orthogonalLoop=1;jettySize=auto;html=1;" edge="1" parent="1" source="_KNiHHcJDV815VIQZiX_-1" target="_KNiHHcJDV815VIQZiX_-10">
          <mxGeometry relative="1" as="geometry" />
        </mxCell>
        <mxCell id="_KNiHHcJDV815VIQZiX_-23" value="Raw Data" style="edgeLabel;html=1;align=center;verticalAlign=middle;resizable=0;points=[];" vertex="1" connectable="0" parent="_KNiHHcJDV815VIQZiX_-14">
          <mxGeometry x="-0.2143" y="-1" relative="1" as="geometry">
            <mxPoint as="offset" />
          </mxGeometry>
        </mxCell>
        <mxCell id="_KNiHHcJDV815VIQZiX_-1" value="&lt;div&gt;Materials List&lt;/div&gt;" style="shape=cylinder3;whiteSpace=wrap;html=1;boundedLbl=1;backgroundOutline=1;size=15;" vertex="1" parent="1">
          <mxGeometry x="200" y="90" width="60" height="80" as="geometry" />
        </mxCell>
        <mxCell id="_KNiHHcJDV815VIQZiX_-7" style="edgeStyle=orthogonalEdgeStyle;rounded=0;orthogonalLoop=1;jettySize=auto;html=1;" edge="1" parent="1" source="_KNiHHcJDV815VIQZiX_-2" target="_KNiHHcJDV815VIQZiX_-6">
          <mxGeometry relative="1" as="geometry" />
        </mxCell>
        <mxCell id="_KNiHHcJDV815VIQZiX_-9" value="Absorption Curves" style="edgeLabel;html=1;align=center;verticalAlign=middle;resizable=0;points=[];" vertex="1" connectable="0" parent="_KNiHHcJDV815VIQZiX_-7">
          <mxGeometry x="0.0143" y="1" relative="1" as="geometry">
            <mxPoint as="offset" />
          </mxGeometry>
        </mxCell>
        <mxCell id="_KNiHHcJDV815VIQZiX_-2" value="Graph Neural Network" style="rounded=1;whiteSpace=wrap;html=1;" vertex="1" parent="1">
          <mxGeometry x="170" y="330" width="120" height="60" as="geometry" />
        </mxCell>
        <mxCell id="_KNiHHcJDV815VIQZiX_-33" style="edgeStyle=orthogonalEdgeStyle;rounded=0;orthogonalLoop=1;jettySize=auto;html=1;exitX=1;exitY=0.75;exitDx=0;exitDy=0;entryX=0;entryY=0.75;entryDx=0;entryDy=0;" edge="1" parent="1" source="_KNiHHcJDV815VIQZiX_-6" target="_KNiHHcJDV815VIQZiX_-35">
          <mxGeometry relative="1" as="geometry">
            <mxPoint x="780" y="320" as="targetPoint" />
          </mxGeometry>
        </mxCell>
        <mxCell id="_KNiHHcJDV815VIQZiX_-34" value="Generated Design" style="edgeLabel;html=1;align=center;verticalAlign=middle;resizable=0;points=[];" vertex="1" connectable="0" parent="_KNiHHcJDV815VIQZiX_-33">
          <mxGeometry x="0.0065" relative="1" as="geometry">
            <mxPoint as="offset" />
          </mxGeometry>
        </mxCell>
        <mxCell id="_KNiHHcJDV815VIQZiX_-6" value="GenAI Model" style="rounded=1;whiteSpace=wrap;html=1;" vertex="1" parent="1">
          <mxGeometry x="440" y="90" width="120" height="300" as="geometry" />
        </mxCell>
        <mxCell id="_KNiHHcJDV815VIQZiX_-15" style="edgeStyle=orthogonalEdgeStyle;rounded=0;orthogonalLoop=1;jettySize=auto;html=1;" edge="1" parent="1" source="_KNiHHcJDV815VIQZiX_-10" target="_KNiHHcJDV815VIQZiX_-2">
          <mxGeometry relative="1" as="geometry" />
        </mxCell>
        <mxCell id="_KNiHHcJDV815VIQZiX_-20" value="Molecular Graph" style="edgeLabel;html=1;align=center;verticalAlign=middle;resizable=0;points=[];" vertex="1" connectable="0" parent="_KNiHHcJDV815VIQZiX_-15">
          <mxGeometry x="-0.0612" y="-1" relative="1" as="geometry">
            <mxPoint as="offset" />
          </mxGeometry>
        </mxCell>
        <mxCell id="_KNiHHcJDV815VIQZiX_-10" value="&lt;div&gt;Data Preparation&lt;br&gt;(RDKit)&lt;/div&gt;" style="shape=parallelogram;perimeter=parallelogramPerimeter;whiteSpace=wrap;html=1;fixedSize=1;" vertex="1" parent="1">
          <mxGeometry x="170" y="210" width="120" height="60" as="geometry" />
        </mxCell>
        <mxCell id="_KNiHHcJDV815VIQZiX_-31" style="edgeStyle=orthogonalEdgeStyle;rounded=0;orthogonalLoop=1;jettySize=auto;html=1;exitX=0;exitY=0.25;exitDx=0;exitDy=0;entryX=1;entryY=0.25;entryDx=0;entryDy=0;" edge="1" parent="1" source="_KNiHHcJDV815VIQZiX_-35" target="_KNiHHcJDV815VIQZiX_-6">
          <mxGeometry relative="1" as="geometry">
            <mxPoint x="780" y="160" as="sourcePoint" />
          </mxGeometry>
        </mxCell>
        <mxCell id="_KNiHHcJDV815VIQZiX_-32" value="&lt;div&gt;Design Parameters&lt;/div&gt;" style="edgeLabel;html=1;align=center;verticalAlign=middle;resizable=0;points=[];" vertex="1" connectable="0" parent="_KNiHHcJDV815VIQZiX_-31">
          <mxGeometry x="-0.0103" y="-1" relative="1" as="geometry">
            <mxPoint as="offset" />
          </mxGeometry>
        </mxCell>
        <mxCell id="_KNiHHcJDV815VIQZiX_-35" value="LLM Interface" style="rounded=1;whiteSpace=wrap;html=1;" vertex="1" parent="1">
          <mxGeometry x="700" y="90" width="90" height="300" as="geometry" />
        </mxCell>
      </root>
    </mxGraphModel>
  </diagram>
</mxfile>
